custom-analysis
version=1
nRows=4
nColumns=133
inDegrees=no

This file contains tibia displacement and acting force.

Units are S.I. units (seconds, meters, Newtons, ...)
Angles are in degrees.

endheader
time	APT	knee_angle	aACL_R_force	pACL_R_force	aPCL_R_force	pPCL_R_force	aMCL_R_force	aLCL_R_force	aPCL_L_force	pPCL_L_force	aMCL_L_force	aLCL_L_force	aACL_R_length	pACL_R_length	aPCL_R_length	pPCL_R_length	aMCL_R_length	aLCL_R_length	aPCL_L_length	pPCL_L_length	aMCL_L_length	aLCL_L_length	aACL_R_strain	pACL_R_strain	aPCL_R_strain	pPCL_R_strain	aMCL_R_strain	aLCL_R_strain	aPCL_L_strain	pPCL_L_strain	aMCL_L_strain	aLCL_L_strain	femur_lat_meniscii_l.femur_lat_l.force.X	femur_lat_meniscii_l.femur_lat_l.force.Y	femur_lat_meniscii_l.femur_lat_l.force.Z	femur_lat_meniscii_l.femur_lat_l.torque.X	femur_lat_meniscii_l.femur_lat_l.torque.Y	femur_lat_meniscii_l.femur_lat_l.torque.Z	femur_lat_meniscii_l.meniscus_lat_l.force.X	femur_lat_meniscii_l.meniscus_lat_l.force.Y	femur_lat_meniscii_l.meniscus_lat_l.force.Z	femur_lat_meniscii_l.meniscus_lat_l.torque.X	femur_lat_meniscii_l.meniscus_lat_l.torque.Y	femur_lat_meniscii_l.meniscus_lat_l.torque.Z	femur_med_meniscii_l.femur_med_l.force.X	femur_med_meniscii_l.femur_med_l.force.Y	femur_med_meniscii_l.femur_med_l.force.Z	femur_med_meniscii_l.femur_med_l.torque.X	femur_med_meniscii_l.femur_med_l.torque.Y	femur_med_meniscii_l.femur_med_l.torque.Z	femur_med_meniscii_l.meniscus_med_l.force.X	femur_med_meniscii_l.meniscus_med_l.force.Y	femur_med_meniscii_l.meniscus_med_l.force.Z	femur_med_meniscii_l.meniscus_med_l.torque.X	femur_med_meniscii_l.meniscus_med_l.torque.Y	femur_med_meniscii_l.meniscus_med_l.torque.Z	femur_lat_meniscii_r.femur_lat_r.force.X	femur_lat_meniscii_r.femur_lat_r.force.Y	femur_lat_meniscii_r.femur_lat_r.force.Z	femur_lat_meniscii_r.femur_lat_r.torque.X	femur_lat_meniscii_r.femur_lat_r.torque.Y	femur_lat_meniscii_r.femur_lat_r.torque.Z	femur_lat_meniscii_r.meniscus_lat_r.force.X	femur_lat_meniscii_r.meniscus_lat_r.force.Y	femur_lat_meniscii_r.meniscus_lat_r.force.Z	femur_lat_meniscii_r.meniscus_lat_r.torque.X	femur_lat_meniscii_r.meniscus_lat_r.torque.Y	femur_lat_meniscii_r.meniscus_lat_r.torque.Z	femur_med_meniscii_r.femur_med_r.force.X	femur_med_meniscii_r.femur_med_r.force.Y	femur_med_meniscii_r.femur_med_r.force.Z	femur_med_meniscii_r.femur_med_r.torque.X	femur_med_meniscii_r.femur_med_r.torque.Y	femur_med_meniscii_r.femur_med_r.torque.Z	femur_med_meniscii_r.meniscus_med_r.force.X	femur_med_meniscii_r.meniscus_med_r.force.Y	femur_med_meniscii_r.meniscus_med_r.force.Z	femur_med_meniscii_r.meniscus_med_r.torque.X	femur_med_meniscii_r.meniscus_med_r.torque.Y	femur_med_meniscii_r.meniscus_med_r.torque.Z	femur_med_tibia_l.tibia_upper_l.force.X	femur_med_tibia_l.tibia_upper_l.force.Y	femur_med_tibia_l.tibia_upper_l.force.Z	femur_med_tibia_l.tibia_upper_l.torque.X	femur_med_tibia_l.tibia_upper_l.torque.Y	femur_med_tibia_l.tibia_upper_l.torque.Z	femur_med_tibia_l.femur_med_l.force.X	femur_med_tibia_l.femur_med_l.force.Y	femur_med_tibia_l.femur_med_l.force.Z	femur_med_tibia_l.femur_med_l.torque.X	femur_med_tibia_l.femur_med_l.torque.Y	femur_med_tibia_l.femur_med_l.torque.Z	femur_lat_tibia_l.tibia_upper_l.force.X	femur_lat_tibia_l.tibia_upper_l.force.Y	femur_lat_tibia_l.tibia_upper_l.force.Z	femur_lat_tibia_l.tibia_upper_l.torque.X	femur_lat_tibia_l.tibia_upper_l.torque.Y	femur_lat_tibia_l.tibia_upper_l.torque.Z	femur_lat_tibia_l.femur_lat_l.force.X	femur_lat_tibia_l.femur_lat_l.force.Y	femur_lat_tibia_l.femur_lat_l.force.Z	femur_lat_tibia_l.femur_lat_l.torque.X	femur_lat_tibia_l.femur_lat_l.torque.Y	femur_lat_tibia_l.femur_lat_l.torque.Z	femur_med_tibia_r.tibia_upper_r.force.X	femur_med_tibia_r.tibia_upper_r.force.Y	femur_med_tibia_r.tibia_upper_r.force.Z	femur_med_tibia_r.tibia_upper_r.torque.X	femur_med_tibia_r.tibia_upper_r.torque.Y	femur_med_tibia_r.tibia_upper_r.torque.Z	femur_med_tibia_r.femur_med_r.force.X	femur_med_tibia_r.femur_med_r.force.Y	femur_med_tibia_r.femur_med_r.force.Z	femur_med_tibia_r.femur_med_r.torque.X	femur_med_tibia_r.femur_med_r.torque.Y	femur_med_tibia_r.femur_med_r.torque.Z	femur_lat_tibia_r.tibia_upper_r.force.X	femur_lat_tibia_r.tibia_upper_r.force.Y	femur_lat_tibia_r.tibia_upper_r.force.Z	femur_lat_tibia_r.tibia_upper_r.torque.X	femur_lat_tibia_r.tibia_upper_r.torque.Y	femur_lat_tibia_r.tibia_upper_r.torque.Z	femur_lat_tibia_r.femur_lat_r.force.X	femur_lat_tibia_r.femur_lat_r.force.Y	femur_lat_tibia_r.femur_lat_r.force.Z	femur_lat_tibia_r.femur_lat_r.torque.X	femur_lat_tibia_r.femur_lat_r.torque.Y	femur_lat_tibia_r.femur_lat_r.torque.Z	femur_lat_meniscii_force_r	femur_med_meniscii_force_r	femur_lat_tibia_force_r	femur_med_tibia_force_r
      0.26037630	      0.00364611	    121.15143103	      0.00000000	      0.00000000	    898.92443932	   1174.04710029	    -11.98645694	      0.00000000	      0.00000000	      0.00000000	    116.99866359	      0.00000000	      0.02498347	      0.01755521	      0.04184888	      0.04100908	      0.06089175	      0.05059204	      0.01525851	      0.01651186	      0.06550154	      0.04489616	     -0.31238847	     -0.34734640	      0.42346506	      0.63059265	      0.02838057	     -0.21923090	      0.00000079	     -0.32847694	      0.07222957	     -0.00000086	      2.76307435	     50.99597937	     -9.56042239	      5.21997485	     -0.02578839	      1.48581788	     -2.76307435	    -50.99597937	      9.56042239	     -1.74637766	      0.02558040	     -0.48301696	     -3.31599387	     20.97615968	     -3.40468921	      0.94473225	     -0.02138609	     -1.00501789	      3.31599387	    -20.97615968	      3.40468921	      0.28075727	      0.00368718	     -0.29758878	    190.47597269	    -16.64002290	     -1.42611998	      0.98285996	      4.49121736	     76.91811518	   -190.47597269	     16.64002290	      1.42611998	     -0.47018651	     -5.24126320	      0.30733149	      0.00000000	      0.00000000	      0.00000000	      0.00000000	      0.00000000	      0.00000000	      0.00000000	      0.00000000	      0.00000000	      0.00000000	      0.00000000	      0.00000000	      0.00000000	      0.00000000	      0.00000000	      0.00000000	      0.00000000	      0.00000000	      0.00000000	      0.00000000	      0.00000000	      0.00000000	      0.00000000	      0.00000000	      0.00000000	      0.00000000	      0.00000000	      0.00000000	      0.00000000	      0.00000000	      0.00000000	      0.00000000	      0.00000000	      0.00000000	      0.00000000	      0.00000000	    -78.80378705	    -21.42164153	     37.30899658	      0.25577837	      1.99315080	      1.68710767	     78.80378705	     21.42164153	    -37.30899658	     15.05968549	     -1.17846443	     31.12986904	   -134.09798674	    -14.85875869	    -17.16324556	      0.17191391	     -4.06017515	      2.16767838	    134.09798674	     14.85875869	     17.16324556	     -7.11449788	      2.97552335	     53.01437383	    191.20674766	      0.00000000	    136.00599162	     89.78243038
      0.26043470	      0.00362788	    121.18399231	      0.00000000	      0.00000000	    898.87298384	   1173.83469763	    -12.22445100	      0.00000000	      0.00000000	      0.00000000	    116.99866359	      0.00000000	      0.02497894	      0.01755785	      0.04185095	      0.04101583	      0.06088994	      0.05058970	      0.01525851	      0.01651186	      0.06550154	      0.04489616	     -0.31251312	     -0.34724802	      0.42353555	      0.63086097	      0.02834999	     -0.21926703	      0.00000079	     -0.32847694	      0.07222957	     -0.00000086	      2.76307435	     50.99597937	     -9.56042239	      5.21997485	     -0.02578839	      1.48581788	     -2.76307435	    -50.99597937	      9.56042239	     -1.74637766	      0.02558040	     -0.48301696	     -3.31599387	     20.97615968	     -3.40468921	      0.94473225	     -0.02138609	     -1.00501789	      3.31599387	    -20.97615968	      3.40468921	      0.28075727	      0.00368718	     -0.29758878	    190.82560692	    -16.36549771	     -1.62734905	      1.05777633	      4.49712755	     77.05344400	   -190.82560692	     16.36549771	      1.62734905	     -0.46185310	     -5.24278767	      0.32424623	      0.00000000	      0.00000000	      0.00000000	      0.00000000	      0.00000000	      0.00000000	      0.00000000	      0.00000000	      0.00000000	      0.00000000	      0.00000000	      0.00000000	      0.00000000	      0.00000000	      0.00000000	      0.00000000	      0.00000000	      0.00000000	      0.00000000	      0.00000000	      0.00000000	      0.00000000	      0.00000000	      0.00000000	      0.00000000	      0.00000000	      0.00000000	      0.00000000	      0.00000000	      0.00000000	      0.00000000	      0.00000000	      0.00000000	      0.00000000	      0.00000000	      0.00000000	    -78.14954757	    -20.88014626	     37.02976930	      0.25698321	      1.97731897	      1.65994102	     78.14954757	     20.88014626	    -37.02976930	     14.94253592	     -1.16848251	     30.87399557	   -133.71048906	    -14.56220257	    -17.10736972	      0.16501086	     -4.04845066	      2.15258994	    133.71048906	     14.56220257	     17.10736972	     -7.08610907	      2.96684390	     52.86311487	    191.53299986	      0.00000000	    135.58471421	     88.96367859
      0.26065722	      0.00355843	    121.30802075	      0.00000000	      0.00000000	    899.55281369	   1175.78878623	    -12.40755512	      0.00000000	      0.00000000	      0.00000000	    116.99866359	      0.00000000	      0.02496178	      0.01756802	      0.04185878	      0.04104147	      0.06088299	      0.05058078	      0.01525851	      0.01651186	      0.06550154	      0.04489616	     -0.31298543	     -0.34686999	      0.42380193	      0.63188066	      0.02823266	     -0.21940471	      0.00000079	     -0.32847694	      0.07222957	     -0.00000086	      2.76307435	     50.99597937	     -9.56042239	      5.21997485	     -0.02578839	      1.48581788	     -2.76307435	    -50.99597937	      9.56042239	     -1.74637766	      0.02558040	     -0.48301696	     -3.31599387	     20.97615968	     -3.40468921	      0.94473225	     -0.02138609	     -1.00501789	      3.31599387	    -20.97615968	      3.40468921	      0.28075727	      0.00368718	     -0.29758878	    198.72809336	    -21.11373472	     -1.31081594	      1.04035304	      4.69570818	     80.28380030	   -198.72809336	     21.11373472	      1.31081594	     -0.59351228	     -5.48528156	      0.17803342	      0.00000000	      0.00000000	      0.00000000	      0.00000000	      0.00000000	      0.00000000	      0.00000000	      0.00000000	      0.00000000	      0.00000000	      0.00000000	      0.00000000	      0.00000000	      0.00000000	      0.00000000	      0.00000000	      0.00000000	      0.00000000	      0.00000000	      0.00000000	      0.00000000	      0.00000000	      0.00000000	      0.00000000	      0.00000000	      0.00000000	      0.00000000	      0.00000000	      0.00000000	      0.00000000	      0.00000000	      0.00000000	      0.00000000	      0.00000000	      0.00000000	      0.00000000	    -75.92010692	    -20.23534895	     36.30412295	      0.25609819	      1.93217068	      1.61462244	     75.92010692	     20.23534895	    -36.30412295	     14.64558157	     -1.13634305	     29.99173179	   -132.05267495	    -13.64765181	    -17.10795622	      0.14120699	     -4.00790027	      2.10174170	    132.05267495	     13.64765181	     17.10795622	     -7.06667716	      2.93213353	     52.21266846	    199.85085219	      0.00000000	    133.85383643	     86.55241952
      0.26092691	      0.00347375	    121.45815836	      0.00000000	      0.00000000	    900.87840575	   1179.74705464	    -12.30856900	      0.00000000	      0.00000000	      0.00000000	    116.99866359	      0.00000000	      0.02494105	      0.01758063	      0.04186848	      0.04107284	      0.06087461	      0.05057033	      0.01525851	      0.01651186	      0.06550154	      0.04489616	     -0.31355607	     -0.34640137	      0.42413202	      0.63312770	      0.02809109	     -0.21956604	      0.00000079	     -0.32847694	      0.07222957	     -0.00000086	      2.76307435	     50.99597937	     -9.56042239	      5.21997485	     -0.02578839	      1.48581788	     -2.76307435	    -50.99597937	      9.56042239	     -1.74637766	      0.02558040	     -0.48301696	     -3.31599387	     20.97615968	     -3.40468921	      0.94473225	     -0.02138609	     -1.00501789	      3.31599387	    -20.97615968	      3.40468921	      0.28075727	      0.00368718	     -0.29758878	    204.52182193	    -26.31602344	     -0.59582331	      0.86838243	      4.82642876	     82.66554248	   -204.52182193	     26.31602344	      0.59582331	     -0.73526560	     -5.66367098	      0.00692358	      0.00000000	      0.00000000	      0.00000000	      0.00000000	      0.00000000	      0.00000000	      0.00000000	      0.00000000	      0.00000000	      0.00000000	      0.00000000	      0.00000000	      0.00000000	      0.00000000	      0.00000000	      0.00000000	      0.00000000	      0.00000000	      0.00000000	      0.00000000	      0.00000000	      0.00000000	      0.00000000	      0.00000000	      0.00000000	      0.00000000	      0.00000000	      0.00000000	      0.00000000	      0.00000000	      0.00000000	      0.00000000	      0.00000000	      0.00000000	      0.00000000	      0.00000000	    -73.22700517	    -19.21157694	     35.15217831	      0.25317629	      1.86697690	      1.54979288	     73.22700517	     19.21157694	    -35.15217831	     14.17522039	     -1.09527560	     28.92837172	   -129.70042171	    -12.97639287	    -16.71609743	      0.12876457	     -3.93438988	      2.05450867	    129.70042171	     12.97639287	     16.71609743	     -6.89747961	      2.87922179	     51.28314827	    206.20878677	      0.00000000	    131.41542556	     83.46828508
